<svg width="33" height="33" viewBox="0 0 33 33" fill="none" xmlns="http://www.w3.org/2000/svg">
<path d="M30.5611 7.29285C30.3644 7.08952 30.0618 7.03152 29.8038 7.15018L29.6944 7.20019C29.6018 7.24285 29.5091 7.28552 29.4158 7.32752C29.6871 6.89485 29.9024 6.43218 30.0511 5.95352C30.1338 5.68952 30.0438 5.40085 29.8251 5.23018C29.6064 5.05952 29.3051 5.04152 29.0684 5.18618C28.3078 5.64818 27.5771 5.98085 26.8218 6.21285C25.6818 5.10685 24.1291 4.42285 22.4151 4.42285C18.9171 4.42285 16.0818 7.25818 16.0818 10.7562C16.0818 10.7595 16.0818 10.8915 16.0818 11.0895L15.4158 11.0362C8.93376 10.2695 7.08842 5.90952 7.01175 5.72152C6.88775 5.40818 6.61442 5.17952 6.28442 5.11085C5.95509 5.04085 5.61309 5.14419 5.37442 5.38218C5.24242 5.51485 4.08175 6.74285 4.08175 9.08952C4.08175 10.7615 4.82709 12.1175 5.79175 13.1722C5.34242 12.8982 5.08042 12.6762 5.07375 12.6702C4.76642 12.4022 4.32642 12.3462 3.96109 12.5315C3.59709 12.7175 3.38242 13.1062 3.41909 13.5135C3.43175 13.6542 3.71575 16.3222 6.79776 18.3369L6.23575 18.4389C5.89509 18.5009 5.61042 18.7349 5.48375 19.0575C5.35775 19.3809 5.40709 19.7455 5.61509 20.0229C5.68509 20.1169 6.98709 21.8095 9.81442 22.7829C8.30442 23.2862 6.22975 23.7562 3.74842 23.7562C3.35642 23.7562 2.99975 23.9855 2.83775 24.3429C2.67509 24.7002 2.73709 25.1195 2.99575 25.4142C3.10309 25.5375 5.70509 28.4229 12.4151 28.4229C23.5571 28.4229 28.7484 18.0795 28.7484 11.0895V10.7562C28.7484 10.6575 28.7378 10.5609 28.7338 10.4635C30.1284 9.11552 30.6531 8.10418 30.6784 8.05418C30.8044 7.80085 30.7578 7.49552 30.5611 7.29285Z" fill="white"/>
</svg>
