<svg width="65" height="64" viewBox="0 0 65 64" fill="none" xmlns="http://www.w3.org/2000/svg">
<g clip-path="url(#clip0_682_4523)">
<path d="M33.0189 42.8804C31.2679 42.8804 29.7383 42.5824 28.4326 41.986C27.1245 41.3895 26.0473 40.5774 25.1962 39.5496C24.3475 38.522 23.711 37.38 23.2936 36.1237C22.8739 34.8676 22.6641 33.5925 22.6641 32.2982V31.6129C22.6641 30.268 22.8809 28.9674 23.3123 27.7111C23.7436 26.455 24.3918 25.3193 25.2545 24.3043C26.1172 23.2891 27.1875 22.4835 28.4699 21.8871C29.7523 21.2907 31.2562 20.9927 32.9816 20.9927C34.7327 20.9927 36.2996 21.3224 37.6822 21.9822C39.0649 22.6421 40.1748 23.5748 41.0118 24.7802C41.8512 25.9854 42.3199 27.3877 42.4202 28.9865H38.1206C37.9667 27.8445 37.4537 26.8801 36.577 26.0934C35.7026 25.3067 34.5042 24.9134 32.9816 24.9134C31.6619 24.9134 30.5707 25.2179 29.708 25.8269C28.8453 26.4359 28.1971 27.2672 27.7657 28.3204C27.3344 29.3733 27.1198 30.5851 27.1198 31.9556C27.1198 33.2751 27.3274 34.468 27.747 35.5338C28.1667 36.5996 28.8126 37.4371 29.6893 38.0462C30.5637 38.6552 31.6736 38.9597 33.0189 38.9597C34.0589 38.9597 34.9542 38.7757 35.7026 38.4078C36.4511 38.0399 37.055 37.5448 37.5097 36.9232C37.9667 36.3014 38.2348 35.5844 38.3094 34.7725H42.6487C42.574 36.4219 42.103 37.8494 41.2403 39.0548C40.3776 40.2603 39.2374 41.1993 37.8151 41.8717C36.3952 42.5442 34.7957 42.8804 33.0189 42.8804Z" fill="white"/>
<path d="M54.2965 42.8804C52.5197 42.8804 50.9715 42.5759 49.6518 41.9668C48.3321 41.3578 47.2549 40.5522 46.4178 39.5496C45.5784 38.5472 44.9512 37.418 44.5315 36.1619C44.1141 34.9056 43.9043 33.6179 43.9043 32.2982V31.5749C43.9043 30.23 44.1141 28.9294 44.5315 27.6731C44.9512 26.417 45.5784 25.2876 46.4178 24.2852C47.2549 23.2828 48.3135 22.4835 49.5959 21.8871C50.8759 21.2907 52.3682 20.9927 54.068 20.9927C56.276 20.9927 58.1157 21.4749 59.587 22.439C61.0606 23.4034 62.1635 24.6531 62.9003 26.1885C63.6347 27.7239 64.0031 29.3799 64.0031 31.1561V32.9452H45.8069V29.9381H60.9953L59.7782 31.4606C59.7782 30.0903 59.5614 28.904 59.13 27.9016C58.6986 26.8992 58.0644 26.1251 57.2274 25.5795C56.3903 25.0339 55.3364 24.7611 54.068 24.7611C52.7482 24.7611 51.6454 25.0656 50.757 25.6746C49.8687 26.2837 49.2088 27.1212 48.7775 28.187C48.3461 29.2528 48.1293 30.5091 48.1293 31.9556C48.1293 33.326 48.3461 34.5503 48.7775 35.6289C49.2088 36.7076 49.8803 37.5577 50.7943 38.1793C51.7084 38.8011 52.8765 39.112 54.2965 39.112C55.7188 39.112 56.8846 38.8011 57.7986 38.1793C58.7126 37.5577 59.2699 36.8281 59.4727 35.9906H63.6231C63.3433 37.3863 62.779 38.6044 61.928 39.645C61.0793 40.6854 60.0067 41.4846 58.7126 42.0431C57.4186 42.6013 55.9449 42.8804 54.2965 42.8804Z" fill="white"/>
<path d="M0.125 42.8801L7.59115 20.9922H14.5471L22.2228 42.8801H17.8443L11.338 23.9006L12.8673 24.5603H9.11909L10.6788 23.9006L4.38208 42.8801H0.125Z" fill="white"/>
</g>
<defs>
<clipPath id="clip0_682_4523">
<rect width="64" height="64" fill="white" transform="translate(0.125)"/>
</clipPath>
</defs>
</svg>
